<?xml version="1.0" standalone="no"?>
<!DOCTYPE svg PUBLIC "-//W3C//DTD SVG 20010904//EN"
 "http://www.w3.org/TR/2001/REC-SVG-20010904/DTD/svg10.dtd">
<svg version="1.0" xmlns="http://www.w3.org/2000/svg"
 width="225.000000pt" height="225.000000pt" viewBox="0 0 225.000000 225.000000"
 preserveAspectRatio="xMidYMid meet">

<g transform="translate(0.000000,225.000000) scale(0.100000,-0.100000)"
fill="#000000" stroke="none">
<path d="M0 1125 l0 -1125 421 0 c271 0 427 4 440 10 13 7 19 7 19 0 0 -7 201
-10 625 -10 l625 0 -6 25 c-8 32 4 32 16 0 8 -22 15 -25 60 -25 l50 0 0 423
c0 233 -3 427 -7 430 -3 4 -12 2 -19 -4 -8 -7 -14 -6 -20 2 -4 8 -3 9 4 5 7
-4 12 -1 12 9 0 9 -4 13 -10 10 -5 -3 -10 -1 -10 4 0 15 23 14 39 -2 10 -10
12 -2 9 37 -3 43 -6 50 -28 53 -31 5 -58 43 -29 43 5 0 7 5 3 12 -4 7 -3 8 5
4 6 -4 9 -11 6 -16 -6 -9 31 -21 39 -12 3 3 6 286 6 629 l0 623 -1125 0 -1125
0 0 -1125z m737 1039 c-3 -3 -12 -4 -19 -1 -8 3 -5 6 6 6 11 1 17 -2 13 -5z
m-43 -33 c6 -9 -36 -31 -60 -31 -8 0 -12 -5 -9 -10 4 -6 12 -7 18 -4 9 5 9 4
0 -6 -6 -7 -9 -19 -6 -28 5 -11 3 -13 -7 -7 -9 6 -11 4 -6 -4 5 -7 14 -10 21
-7 15 6 27 -3 19 -15 -3 -5 -19 -2 -36 7 -16 9 -27 11 -24 5 12 -19 -6 -12
-42 15 -26 20 -31 29 -21 35 10 6 11 9 2 9 -7 0 -13 5 -13 11 0 6 9 8 21 4 21
-7 95 11 114 27 12 10 22 10 29 -1z m-128 -110 l39 -19 -45 4 c-34 3 -41 1
-30 -7 12 -8 12 -10 1 -7 -15 4 -27 48 -13 48 5 0 26 -9 48 -19z m19 -35 c17
-12 17 -13 -6 -18 -19 -3 -25 0 -26 14 -2 21 7 23 32 4z m22 -32 c-3 -3 -12
-4 -19 -1 -8 3 -5 6 6 6 11 1 17 -2 13 -5z m758 -25 c15 -14 -7 -10 -35 7
l-25 15 25 -7 c14 -3 29 -10 35 -15z m568 -37 c-6 -4 -10 -25 -8 -49 2 -24 0
-43 -4 -43 -5 0 -6 -11 -4 -24 3 -13 1 -26 -4 -29 -5 -3 -9 2 -10 11 -2 30 -8
47 -25 71 -15 21 -15 26 -2 38 7 8 19 11 25 7 8 -4 9 -3 5 4 -4 7 -2 12 3 12
6 0 11 8 11 17 0 14 3 14 12 5 10 -10 10 -15 1 -20z m-313 8 c-8 -5 -19 -10
-25 -10 -5 0 -3 5 5 10 8 5 20 10 25 10 6 0 3 -5 -5 -10z m41 -39 c32 -34 52
-46 94 -55 21 -5 26 -4 15 3 -11 8 -5 12 28 17 23 4 42 12 42 18 1 6 9 0 20
-13 11 -12 18 -27 15 -31 -3 -5 1 -11 7 -14 7 -4 3 -4 -9 -2 -15 3 -20 0 -16
-10 3 -10 13 -12 27 -8 20 6 20 6 2 -9 -11 -8 -21 -20 -22 -28 -2 -8 -6 -23
-9 -34 -4 -15 12 -38 75 -99 44 -44 80 -83 80 -87 0 -4 -15 -3 -32 3 -18 6
-43 10 -55 10 -13 0 -23 3 -23 7 0 7 -44 31 -57 31 -3 0 -3 -6 0 -14 7 -18
-27 -17 -60 2 -15 8 -24 9 -28 1 -5 -7 -18 0 -38 18 l-30 28 25 -35 c14 -19
29 -42 33 -50 8 -13 7 -13 -8 -1 -15 12 -21 9 -18 -11 0 -5 -5 -8 -12 -8 -7 0
-8 -3 -2 -8 6 -4 17 -16 25 -26 14 -18 13 -19 -21 -13 -21 3 -41 1 -47 -5 -15
-15 -57 14 -59 41 -1 11 2 21 7 21 11 0 -10 52 -25 62 -6 5 -3 8 8 8 28 0 19
20 -15 34 -18 7 -42 17 -53 21 -11 5 -22 9 -25 10 -35 9 -78 30 -74 37 3 5 9
6 14 3 5 -3 16 5 24 17 9 12 16 18 16 13 0 -5 10 2 21 14 16 17 30 22 55 19
18 -2 31 -1 28 3 -2 4 0 10 6 14 5 3 10 2 10 -4 0 -6 7 -8 16 -4 12 4 8 9 -15
20 -18 9 -28 20 -24 29 3 8 9 11 14 8 5 -3 17 0 26 5 15 9 14 11 -12 12 -24 2
-20 3 15 9 l45 7 -42 1 c-32 2 -41 6 -39 19 2 13 23 28 45 32 2 1 16 -12 32
-28z m-1350 -158 c13 -16 12 -17 -3 -4 -10 7 -18 15 -18 17 0 8 8 3 21 -13z
m29 -59 c0 9 55 -33 55 -42 0 -4 4 -13 8 -19 11 -18 -8 -16 -23 2 -10 12 -10
15 1 16 8 0 4 5 -8 11 -13 6 -23 15 -23 19 0 5 -6 6 -12 4 -7 -2 -22 8 -32 23
l-19 27 26 -24 c15 -14 27 -21 27 -17z m-125 5 c0 -8 7 -14 15 -14 22 -1 80
-47 73 -58 -3 -6 -1 -7 6 -3 15 10 76 -41 77 -65 1 -10 -5 -20 -12 -23 -9 -3
-11 0 -7 11 5 13 2 15 -11 10 -9 -4 -15 -3 -11 3 3 5 -3 8 -12 7 -19 -1 -77
32 -69 40 2 3 14 -1 26 -7 33 -18 33 -7 -1 12 -16 9 -29 13 -29 8 0 -17 -24
-11 -63 15 -39 27 -49 54 -19 51 11 -1 16 5 14 18 -2 11 1 17 10 14 7 -3 13
-11 13 -19z m1236 -19 l24 -19 -45 5 c-58 6 -73 11 -65 24 10 17 61 11 86 -10z
m-1263 -75 c-3 -3 -9 2 -12 12 -6 14 -5 15 5 6 7 -7 10 -15 7 -18z m56 -8 c3
3 6 -1 6 -10 0 -9 7 -17 16 -17 8 0 13 -4 9 -9 -3 -6 10 -13 30 -17 35 -6 122
-74 95 -74 -17 0 -80 42 -80 53 0 5 -4 5 -10 2 -5 -3 -10 -1 -10 4 0 6 -6 11
-14 11 -7 0 -20 7 -27 16 -7 9 -23 20 -36 25 -13 5 -23 13 -23 19 0 7 6 8 19
1 10 -6 21 -7 25 -4z m-58 -54 c9 8 66 -32 60 -42 -3 -4 10 -7 28 -7 33 0 74
-28 57 -38 -5 -3 -11 1 -15 9 -3 9 -17 15 -33 15 l-28 -1 30 -14 30 -14 -30 5
c-27 5 -28 4 -10 -7 78 -45 142 -96 134 -103 -7 -6 -49 13 -49 22 0 5 -27 26
-59 47 -33 22 -57 43 -55 47 3 4 -1 8 -8 8 -7 0 -19 10 -27 21 -12 20 -11 21
4 15 15 -5 16 -4 5 9 -10 12 -16 13 -28 3 -13 -11 -14 -11 -7 1 6 11 4 13 -9
8 -10 -4 -19 -1 -22 8 -4 8 -10 12 -15 9 -5 -3 -9 5 -9 17 l0 22 25 -23 c14
-13 28 -21 31 -17z m9 19 c-3 -3 -11 0 -18 7 -9 10 -8 11 6 5 10 -3 15 -9 12
-12z m-70 -42 c3 -5 2 -10 -4 -10 -5 0 -13 5 -16 10 -3 6 -2 10 4 10 5 0 13
-4 16 -10z m761 -9 c-3 -4 13 -5 37 -1 37 7 40 7 22 -6 -17 -13 -16 -14 19
-14 27 0 43 -7 60 -25 13 -14 30 -25 38 -25 17 0 106 -47 126 -67 8 -7 40 -14
75 -15 61 -1 61 -1 17 -8 -34 -5 -41 -8 -27 -14 10 -5 34 -6 53 -3 20 4 32 2
29 -4 -4 -5 -14 -9 -23 -9 -15 -1 -15 -2 1 -11 10 -6 25 -8 33 -5 8 3 14 1 14
-4 0 -4 15 -12 33 -16 31 -7 32 -8 7 -15 l-25 -7 25 -2 25 -1 -23 -10 c-13 -5
-20 -13 -17 -19 4 -6 -19 -22 -52 -38 -48 -22 -72 -27 -138 -27 -73 0 -87 4
-160 41 -53 26 -79 45 -77 54 2 8 0 12 -4 7 -10 -9 -54 32 -54 50 0 8 -4 12
-8 9 -4 -2 -9 4 -9 15 -2 23 -22 51 -32 45 -3 -2 -6 27 -6 65 0 65 1 69 23 69
13 0 21 -4 18 -9z m-490 -65 c10 -8 16 -17 12 -21 -7 -7 -48 16 -48 27 0 12
14 9 36 -6z m1239 4 c-3 -5 -12 -10 -18 -10 -7 0 -6 4 3 10 19 12 23 12 15 0z
m-1496 -37 c56 -42 91 -77 91 -90 0 -7 4 -13 10 -13 5 0 7 8 3 18 -5 14 -3 14
14 -3 11 -11 19 -22 18 -25 -2 -3 7 -6 20 -6 30 -2 97 -53 88 -67 -3 -6 -1 -7
6 -3 13 9 74 -32 66 -44 -3 -5 3 -13 12 -19 10 -6 14 -11 9 -11 -4 0 -46 21
-92 48 -81 46 -107 70 -61 57 12 -3 18 -3 12 2 -5 5 -13 12 -16 16 -3 4 -16
-1 -28 -12 -14 -13 -18 -20 -9 -23 8 -3 8 -7 2 -11 -10 -6 -67 28 -108 66 -19
16 -36 21 -62 18 -7 -1 -14 7 -18 16 -3 10 -11 26 -18 36 -11 16 -10 21 11 38
13 10 18 19 12 19 -6 0 -11 5 -11 10 0 16 10 12 49 -17z m89 -3 c12 -11 26
-20 31 -20 5 0 12 -4 15 -8 3 -5 -1 -9 -9 -9 -17 0 -85 56 -69 57 5 0 20 -9
32 -20z m68 -49 c-3 -5 1 -12 10 -15 9 -4 14 -9 11 -12 -3 -3 -15 1 -27 9 -15
11 -18 16 -8 20 19 8 20 8 14 -2z m104 -62 c42 -26 64 -49 46 -49 -8 0 -95 61
-101 71 -10 15 2 10 55 -22z m-241 -62 c-7 -12 -8 -19 -4 -14 5 4 15 1 24 -7
9 -8 21 -15 26 -15 37 -3 93 -29 169 -79 27 -17 71 -39 97 -47 49 -17 71 -34
47 -37 -7 0 -17 -2 -23 -3 -5 -2 -21 -4 -35 -5 -23 -1 -23 -3 10 -17 19 -8 42
-21 51 -29 9 -8 20 -14 25 -13 19 4 44 -14 44 -31 0 -16 -4 -17 -37 -8 -21 5
-42 14 -48 18 -5 4 -26 11 -45 14 l-35 7 24 -21 c13 -11 34 -20 47 -20 27 0
65 -18 77 -37 4 -7 17 -13 29 -13 31 0 98 -22 98 -32 0 -10 -49 -3 -92 14 -14
5 -35 8 -45 6 -10 -2 8 -11 42 -22 33 -10 64 -22 70 -27 5 -5 20 -9 35 -10 22
0 23 -1 5 -8 -16 -6 -10 -10 27 -15 56 -8 69 -21 30 -29 -15 -3 -35 -9 -46
-13 -16 -6 -17 -5 -7 14 10 19 9 22 -7 22 -10 0 -23 5 -30 12 -6 6 -25 11 -42
10 -17 0 -28 4 -25 9 4 5 2 9 -3 9 -5 0 -25 2 -43 5 l-34 5 40 -19 c22 -11 50
-20 62 -20 12 -1 25 -5 28 -11 3 -5 16 -10 28 -10 22 -1 22 -1 2 -12 -31 -19
-58 -20 -67 -3 -5 8 -17 15 -27 15 -10 0 -31 6 -47 14 -16 8 -49 17 -74 20
-45 5 -45 5 -10 -6 27 -9 30 -12 16 -16 -34 -7 4 -21 42 -15 25 5 33 3 28 -5
-5 -8 1 -12 16 -12 13 0 32 -7 42 -15 19 -14 19 -15 -8 -15 -15 0 -39 6 -54
14 -15 7 -48 17 -74 20 -26 4 -54 14 -62 22 -8 8 -25 14 -38 14 -13 0 -33 7
-44 15 -23 18 -35 19 -32 3 4 -17 43 -37 103 -53 109 -30 107 -29 78 -51 -17
-13 -17 -13 0 -14 9 0 17 -5 17 -11 0 -6 -9 -8 -22 -3 -38 12 -91 25 -123 31
-29 5 -29 4 -10 -10 18 -14 18 -16 4 -22 -10 -4 -32 4 -54 19 -31 21 -34 26
-16 26 33 0 25 13 -20 32 -26 11 -39 22 -36 30 2 8 -13 31 -34 53 -38 38 -50
65 -29 65 6 0 10 -4 10 -10 0 -5 4 -10 10 -10 12 0 -26 70 -46 86 -7 6 -10 14
-6 18 4 4 -1 14 -12 21 -10 8 -15 18 -12 24 4 6 -1 22 -10 36 -16 25 -16 25
10 25 14 0 26 5 26 10 0 6 4 10 10 10 5 0 7 -7 3 -16 -5 -14 19 -40 40 -43 4
0 20 -7 37 -16 17 -9 46 -14 72 -11 44 4 91 -11 82 -25 -3 -5 -2 -9 3 -10 4 0
16 -2 26 -4 9 -2 17 0 17 3 -1 7 -91 64 -149 94 -18 9 -40 26 -48 38 -8 11
-20 20 -26 20 -7 0 -19 5 -27 10 -13 9 -13 11 -1 19 12 8 8 11 -15 17 -16 3
-40 13 -52 21 -23 14 -23 15 -6 34 18 20 50 27 38 8 -4 -7 -1 -10 7 -7 8 3 13
11 11 17 -1 7 2 10 8 6 7 -4 6 -13 -1 -28z m211 -57 c3 -3 26 -18 53 -33 47
-28 67 -48 25 -26 -68 35 -137 83 -132 91 5 8 32 -9 54 -32z m1868 -8 c2 -8
-3 -10 -15 -6 -16 6 -16 5 2 -10 19 -15 19 -16 2 -30 -28 -21 -48 -10 -40 23
9 39 41 53 51 23z m-2102 -19 c13 -14 22 -28 20 -30 -9 -9 -76 30 -76 43 0 23
29 16 56 -13z m1694 7 c0 -11 -2 -20 -4 -20 -2 0 -6 9 -9 20 -3 11 -1 20 4 20
5 0 9 -9 9 -20z m307 -2 c-3 -8 -6 -5 -6 6 -1 11 2 17 5 13 3 -3 4 -12 1 -19z
m-267 1 c0 -5 -4 -7 -10 -4 -6 3 -10 -4 -11 -17 0 -13 -3 -17 -6 -10 -3 7 -2
19 1 27 6 17 26 20 26 4z m112 -29 c-6 -41 -12 -38 -12 6 0 19 4 33 8 30 5 -3
7 -19 4 -36z m98 25 c0 -8 -6 -15 -12 -15 -9 0 -8 -4 2 -10 13 -8 12 -10 -2
-10 -18 0 -25 30 -11 43 11 12 23 8 23 -8z m-67 -15 c-9 -11 -19 -17 -21 -15
-6 6 18 35 29 35 5 0 1 -9 -8 -20z m-103 -11 c0 -5 -8 -9 -17 -8 -11 0 -13 3
-5 6 6 2 9 10 6 15 -4 7 -2 8 4 4 7 -4 12 -11 12 -17z m43 6 c-3 -9 -8 -14
-10 -11 -3 3 -2 9 2 15 9 16 15 13 8 -4z m167 -5 c-18 -12 -30 -13 -30 -2 0 4
10 9 22 9 18 2 20 0 8 -7z m-40 -85 c7 17 14 25 17 18 2 -7 12 -9 21 -6 13 4
14 3 3 -5 -9 -7 -10 -12 -2 -16 13 -9 5 -26 -12 -26 -8 0 -8 3 1 9 10 6 10 10
-1 20 -12 9 -16 7 -20 -9 -6 -23 -32 -27 -41 -5 -3 8 -2 23 2 33 5 13 8 11 13
-13 l6 -30 13 30z m86 -5 c5 1 10 -4 13 -11 2 -8 -2 -10 -12 -6 -9 3 -18 1
-21 -6 -2 -7 -5 2 -5 18 0 20 2 26 8 17 4 -8 12 -13 17 -12z m-522 -21 c-9
-10 -25 -21 -36 -25 -14 -4 -17 -11 -13 -27 4 -12 3 -17 -2 -12 -14 18 -47 41
-39 28 4 -8 2 -13 -6 -13 -7 0 -21 -7 -32 -15 -16 -12 -15 -14 20 -13 102 2
125 -1 112 -16 -7 -7 -18 -12 -24 -9 -7 2 -17 -8 -22 -24 -6 -15 -11 -21 -11
-13 -1 11 -13 15 -42 16 -23 1 -45 8 -50 15 -7 12 -9 12 -9 0 0 -8 -7 -11 -20
-8 -11 3 -23 1 -26 -4 -3 -5 0 -8 8 -7 7 2 13 -3 13 -11 0 -8 -12 -15 -28 -17
-23 -2 -26 0 -17 10 15 19 -7 26 -58 16 -40 -7 -48 -3 -43 24 1 4 -3 13 -8 20
-6 7 -6 17 -1 26 6 8 10 11 10 5 0 -5 24 -10 52 -10 50 0 53 -1 50 -24 -2 -18
2 -22 14 -17 8 3 20 6 25 6 5 0 9 9 9 20 0 14 -5 18 -17 13 -11 -4 -14 -3 -9
5 4 7 15 12 26 12 10 0 20 7 24 15 3 8 12 15 21 15 8 0 15 5 15 10 0 6 14 10
30 10 17 0 30 -4 30 -10 0 -5 -4 -10 -10 -10 -5 0 -10 -6 -10 -12 1 -7 9 -3
20 10 10 13 21 23 24 22 21 -1 27 1 22 8 -3 5 1 9 9 9 13 0 12 -3 -1 -18z m66
18 c0 -2 -9 -12 -19 -21 -14 -13 -21 -14 -27 -5 -4 7 -3 10 3 6 6 -4 16 0 23
8 12 14 20 19 20 12z m20 -43 c0 -8 -19 -13 -24 -6 -3 5 1 9 9 9 8 0 15 -2 15
-3z m488 -29 c-3 -3 -9 2 -12 12 -6 14 -5 15 5 6 7 -7 10 -15 7 -18z m-1048
-15 c-8 -6 -22 -10 -30 -9 -9 0 -5 6 10 14 27 14 44 10 20 -5z m1013 -11 c13
-9 -2 -49 -19 -49 -15 0 -19 35 -7 66 5 14 8 15 11 3 3 -7 9 -17 15 -20z
m-484 -7 c-7 -12 -22 -23 -32 -26 -16 -4 -14 1 8 24 31 33 44 33 24 2z m79 8
c-7 -10 -14 -17 -17 -15 -4 4 18 35 25 35 2 0 -1 -9 -8 -20z m-518 -10 c12 -8
9 -10 -12 -10 -16 0 -28 5 -28 10 0 13 20 13 40 0z m490 6 c0 -2 -8 -10 -17
-17 -16 -13 -17 -12 -4 4 13 16 21 21 21 13z m310 -20 c0 -19 -4 -23 -20 -19
-11 3 -20 9 -20 14 0 5 8 5 17 2 12 -5 15 -2 10 10 -3 9 -2 17 3 17 6 0 10
-11 10 -24z m33 17 c-7 -2 -13 -12 -13 -20 0 -9 -3 -14 -6 -10 -10 10 4 37 18
36 10 0 10 -2 1 -6z m47 -3 c0 -5 -2 -10 -4 -10 -3 0 -8 5 -11 10 -3 6 -1 10
4 10 6 0 11 -4 11 -10z m-16 -26 c3 -8 2 -12 -4 -9 -6 3 -10 10 -10 16 0 14 7
11 14 -7z m11 -43 c3 -5 1 -12 -5 -16 -5 -3 -10 1 -10 9 0 18 6 21 15 7z
m-475 -25 c0 -2 -7 -7 -16 -10 -8 -3 -12 -2 -9 4 6 10 25 14 25 6z m467 -31
c3 -9 -2 -22 -13 -30 -16 -12 -19 -12 -22 1 -2 8 -8 14 -13 14 -16 0 -10 18 9
23 30 8 32 7 39 -8z m24 -28 c-8 -8 -11 -7 -11 4 0 20 13 34 18 19 3 -7 -1
-17 -7 -23z m-81 -1 c0 -11 -19 -15 -25 -6 -3 5 1 10 9 10 9 0 16 -2 16 -4z
m56 -38 c5 -8 0 -9 -15 -5 -15 4 -29 -1 -43 -15 -15 -15 -25 -18 -41 -11 -19
9 -18 10 10 24 39 18 80 22 89 7z m-1331 -7 c3 -6 -13 -9 -37 -9 -32 1 -38 3
-23 9 28 11 53 11 60 0z m-55 -25 c41 -2 77 -5 80 -6 3 -1 27 -1 54 0 41 1 48
-1 43 -14 -5 -12 0 -16 21 -17 26 0 26 -1 5 -11 -15 -7 -43 -7 -90 -1 -37 6
-80 7 -96 2 -15 -4 -25 -4 -22 1 3 5 -9 11 -27 15 -43 8 -79 26 -72 36 2 5 10
6 17 4 7 -3 46 -7 87 -9z m1346 -23 c-8 -8 -65 -9 -60 -2 2 4 18 7 34 7 17 -1
28 -3 26 -5z m-1472 -12 c4 -5 -3 -7 -14 -4 -23 6 -26 13 -6 13 8 0 17 -4 20
-9z m-162 -11 c4 -13 115 -33 153 -27 35 5 55 0 55 -16 0 -8 -3 -8 -12 1 -9 9
-14 7 -23 -5 -13 -18 -37 -15 -175 22 -81 21 -98 35 -43 35 23 0 43 -4 45 -10z
m225 4 c-3 -3 -12 -4 -19 -1 -8 3 -5 6 6 6 11 1 17 -2 13 -5z m1201 -14 c-7
-10 -14 -17 -17 -15 -4 4 18 35 25 35 2 0 -1 -9 -8 -20z m-1318 0 c0 -6 -11
-8 -27 -4 -40 10 -41 14 -5 14 18 0 32 -5 32 -10z m1415 -7 c-2 -10 -4 -22 -4
-27 -1 -5 -7 -3 -15 3 -11 10 -17 8 -25 -6 -14 -24 -14 -8 0 18 5 11 14 17 19
14 5 -3 11 -1 15 5 9 15 14 12 10 -7z m45 13 c0 -2 -7 -7 -16 -10 -8 -3 -12
-2 -9 4 6 10 25 14 25 6z m-960 -20 c0 -2 -7 -7 -16 -10 -8 -3 -12 -2 -9 4 6
10 25 14 25 6z m-185 -16 c-3 -5 -16 -10 -28 -9 -21 0 -21 1 -2 9 28 12 37 12
30 0z m959 -2 c-4 -7 -16 -23 -27 -35 -11 -13 -18 -25 -15 -28 3 -3 19 10 37
30 17 20 31 32 31 28 -1 -9 -68 -83 -75 -83 -3 0 -4 3 -4 8 3 17 -2 23 -13 15
-12 -7 -17 -9 -36 -12 -5 0 -17 -20 -27 -43 -68 -157 -97 -198 -140 -198 -29
0 -32 8 -9 25 14 9 11 11 -15 9 -17 -1 -31 3 -31 8 0 6 -6 6 -15 -2 -19 -16
-40 -3 -22 15 8 7 27 11 45 9 24 -3 34 1 43 17 6 11 8 23 5 26 -8 8 13 43 26
43 6 0 5 -7 -3 -17 -9 -11 -3 -9 15 5 16 12 34 22 41 22 11 0 42 31 60 60 7
13 6 13 -10 0 -11 -9 -16 -10 -11 -2 4 7 2 12 -4 12 -6 0 -8 5 -5 10 4 6 10 8
15 5 4 -3 13 2 21 11 7 8 22 20 33 25 17 8 16 6 -4 -11 -22 -18 -23 -20 -5
-18 22 3 48 22 79 55 24 25 31 29 20 11z m-1377 -4 c-3 -3 -12 -4 -19 -1 -8 3
-5 6 6 6 11 1 17 -2 13 -5z m533 -4 c-20 -13 -33 -13 -25 0 3 6 14 10 23 10
15 0 15 -2 2 -10z m760 7 c0 -2 -12 -14 -27 -28 l-28 -24 24 28 c23 25 31 32
31 24z m-1249 -29 c6 -9 9 -10 9 -1 0 9 7 10 24 3 13 -5 27 -6 32 -2 4 4 4 1
0 -5 -5 -9 2 -13 22 -13 16 0 45 -6 63 -14 32 -13 30 -14 -37 -11 -38 2 -98 6
-132 9 -56 5 -62 4 -52 -9 7 -8 19 -15 26 -15 8 0 14 -4 14 -8 0 -5 9 -19 20
-32 19 -22 23 -23 97 -13 43 5 88 7 101 5 19 -4 20 -7 10 -20 -11 -13 -10 -14
9 -4 29 16 41 15 19 -1 -16 -12 -16 -14 10 -26 16 -7 56 -15 89 -18 66 -5 87
-13 37 -13 -18 0 -32 -4 -32 -9 0 -5 -22 -7 -50 -6 -50 3 -65 -6 -32 -20 9 -5
44 -13 77 -20 l60 -11 -32 -17 c-19 -10 -34 -13 -38 -7 -3 5 -13 6 -22 3 -9
-3 -21 0 -27 8 -6 8 -31 21 -56 29 -25 8 -49 20 -53 27 -4 7 -15 13 -23 13
-25 0 -123 60 -150 93 -15 18 -40 38 -56 44 -30 13 -67 50 -68 68 0 16 131 9
141 -7z m1399 12 c0 -5 -5 -10 -11 -10 -5 0 -7 5 -4 10 3 6 8 10 11 10 2 0 4
-4 4 -10z m-655 -20 c-3 -5 -10 -10 -15 -10 -5 0 -26 -11 -46 -25 -38 -26 -74
-33 -74 -15 0 6 8 10 18 10 10 0 41 11 68 25 55 28 58 29 49 15z m48 -2 c-13
-6 -23 -15 -23 -19 0 -18 -79 -60 -107 -57 -27 3 -27 4 20 31 27 16 51 26 54
24 2 -3 13 3 24 14 10 10 27 19 37 18 13 0 12 -3 -5 -11z m247 8 c0 -2 -7 -7
-16 -10 -8 -3 -12 -2 -9 4 6 10 25 14 25 6z m450 0 c0 -2 -8 -10 -17 -17 -16
-13 -17 -12 -4 4 13 16 21 21 21 13z m-546 -20 c-10 -8 -21 -12 -24 -10 -5 6
21 24 34 24 6 0 1 -6 -10 -14z m-351 -3 c-7 -2 -19 -2 -25 0 -7 3 -2 5 12 5
14 0 19 -2 13 -5z m553 -29 c-30 -21 -44 -16 -17 7 13 11 27 17 30 13 3 -3 -3
-12 -13 -20z m188 13 c-3 -9 4 -13 21 -13 15 0 24 5 21 11 -2 7 2 12 10 12 8
0 12 -3 9 -5 -3 -3 0 -10 5 -17 7 -8 3 -11 -13 -10 -27 2 -50 -27 -40 -52 7
-17 6 -17 -11 -1 -11 12 -15 26 -11 40 5 19 0 17 -25 -12 -25 -29 -30 -31 -27
-14 1 12 16 33 32 47 35 31 36 31 29 14z m-224 -1 c0 -2 -7 -9 -15 -16 -13
-11 -14 -10 -9 4 5 14 24 23 24 12z m-300 -24 c0 -10 -60 -45 -66 -39 -3 2 10
14 28 25 40 25 38 24 38 14z m170 0 c0 -5 -12 -14 -27 -21 l-28 -11 24 20 c26
22 31 24 31 12z m64 -13 c-3 -5 -10 -7 -15 -3 -5 3 -7 10 -3 15 3 5 10 7 15 3
5 -3 7 -10 3 -15z m209 7 c3 -8 0 -19 -7 -25 -10 -9 -12 -6 -8 14 5 29 8 31
15 11z m-183 -46 c-22 -22 -35 -40 -29 -40 6 0 6 -7 -1 -20 -8 -14 -8 -20 0
-20 6 0 8 -5 4 -12 -4 -7 -9 -8 -11 -3 -2 6 -48 9 -109 7 -77 -2 -105 1 -102
10 5 15 37 19 59 8 12 -7 21 -5 30 6 7 8 21 13 31 10 20 -5 131 70 124 83 -3
4 6 8 19 9 22 2 21 -1 -15 -38z m-537 23 c-7 -2 -19 -2 -25 0 -7 3 -2 5 12 5
14 0 19 -2 13 -5z m487 -12 c0 -4 -13 -20 -29 -35 -22 -21 -33 -26 -47 -19
-11 5 -36 9 -57 7 l-38 -1 22 21 c13 11 30 21 38 23 13 1 12 -1 -2 -11 -15
-12 -15 -14 -3 -19 9 -4 18 -2 21 3 3 5 12 7 19 4 7 -3 20 6 30 20 14 23 46
27 46 7z m-627 -8 c-7 -2 -19 -2 -25 0 -7 3 -2 5 12 5 14 0 19 -2 13 -5z m242
-3 c4 -7 -3 -8 -22 -4 -38 9 -42 14 -10 14 14 0 29 -5 32 -10z m225 5 c0 -3
-12 -10 -26 -15 -14 -6 -22 -14 -19 -20 4 -6 -1 -7 -11 -3 -13 5 -14 8 -5 11
11 4 11 6 0 14 -11 8 -11 9 1 5 8 -2 24 -1 35 4 26 10 25 10 25 4z m525 -16
c-10 -15 -25 -10 -19 6 4 8 10 12 15 9 5 -3 7 -10 4 -15z m-650 1 c-3 -5 -16
-10 -28 -9 -21 0 -21 1 -2 9 28 12 37 12 30 0z m565 -30 c-5 -22 -8 -27 -9
-13 -1 21 9 56 14 51 2 -2 0 -19 -5 -38z m-933 4 c-3 -3 -12 -4 -19 -1 -8 3
-5 6 6 6 11 1 17 -2 13 -5z m871 -12 c9 7 1 -9 -17 -35 -18 -27 -35 -46 -38
-43 -3 3 0 13 7 21 10 12 10 19 2 27 -8 8 -8 17 0 31 10 19 11 19 20 3 8 -14
12 -15 26 -4z m-831 2 c-3 -3 -12 -4 -19 -1 -8 3 -5 6 6 6 11 1 17 -2 13 -5z
m869 -21 c-10 -10 -19 5 -10 18 6 11 8 11 12 0 2 -7 1 -15 -2 -18z m-786 -13
c11 -7 7 -10 -17 -10 -17 0 -35 5 -38 10 -8 13 35 13 55 0z m-65 -20 l20 -9
-20 1 c-11 0 -31 4 -45 8 l-25 8 25 0 c14 0 34 -3 45 -8z m538 -7 c-7 -2 -19
-2 -25 0 -7 3 -2 5 12 5 14 0 19 -2 13 -5z m-130 -18 c-3 -5 0 -5 7 2 9 8 20
9 38 2 14 -5 32 -7 40 -4 17 6 54 -23 46 -36 -9 -15 13 -10 26 5 6 8 18 12 26
9 26 -10 -16 -31 -62 -31 -22 0 -44 -2 -50 -3 -24 -4 -55 2 -49 11 4 7 -2 7
-19 0 -16 -6 -27 -6 -31 0 -4 6 -14 6 -27 -1 -11 -6 -18 -7 -15 -2 3 4 -28 9
-68 9 -39 1 -81 7 -91 13 -15 10 -7 11 41 5 69 -7 184 -8 191 -1 3 2 -11 8
-30 11 -51 10 -56 27 -8 24 23 -2 38 -7 35 -13z m-391 -42 c-6 -2 -10 -9 -6
-14 3 -5 -2 -9 -10 -9 -17 0 -21 12 -9 23 3 4 13 7 22 6 11 0 12 -2 3 -6z
m266 -15 c34 -8 60 -17 56 -21 -11 -11 -93 -8 -114 3 -10 5 -33 7 -52 3 -32
-7 -32 -7 -8 -14 23 -7 23 -7 -7 -8 -17 -1 -40 -4 -50 -7 -16 -6 -16 -5 2 11
19 16 19 16 -8 1 -16 -10 -36 -14 -48 -11 -19 6 -19 8 -5 24 20 22 20 29 -1
33 -10 3 25 3 77 2 52 -1 123 -9 158 -16z m102 -46 c0 -5 -7 -9 -15 -9 -8 0
-12 4 -9 9 3 4 9 8 15 8 5 0 9 -4 9 -8z m711 -44 c-10 -11 -11 -9 -5 6 6 15 4
17 -6 11 -9 -6 -11 -4 -5 4 5 9 10 10 18 2 8 -8 7 -14 -2 -23z m69 -38 c0 -5
-2 -10 -4 -10 -3 0 -8 5 -11 10 -3 6 -1 10 4 10 6 0 11 -4 11 -10z"/>
<path d="M1837 1809 c7 -7 15 -10 18 -7 3 3 -2 9 -12 12 -14 6 -15 5 -6 -5z"/>
<path d="M1612 1790 c2 -8 19 -17 36 -21 17 -3 29 -2 26 2 -3 5 -13 9 -23 9
-9 0 -23 6 -30 13 -11 10 -13 9 -9 -3z"/>
<path d="M1615 1730 c-7 -11 22 -26 32 -16 4 3 -2 6 -13 6 -16 0 -17 2 -4 10
9 6 10 10 3 10 -6 0 -15 -5 -18 -10z"/>
<path d="M1685 1711 c11 -13 39 -44 63 -68 24 -24 40 -48 37 -53 -3 -6 1 -7
10 -4 8 4 23 0 33 -7 9 -7 -5 8 -33 35 -89 85 -130 122 -110 97z"/>
<path d="M1728 1713 c7 -3 16 -2 19 1 4 3 -2 6 -13 5 -11 0 -14 -3 -6 -6z"/>
<path d="M1466 1681 c-3 -5 1 -11 9 -15 15 -6 29 7 18 18 -9 9 -21 8 -27 -3z"/>
<path d="M1641 1654 c24 -25 39 -34 20 -11 -6 8 -8 16 -6 19 3 3 -4 8 -16 11
-21 6 -21 6 2 -19z"/>
<path d="M1515 1661 c3 -7 34 -25 68 -42 76 -38 73 -35 57 -54 -16 -19 -3 -20
16 0 13 12 11 16 -13 32 -15 10 -33 25 -40 33 -7 8 -13 12 -13 7 0 -4 -18 2
-41 14 -23 11 -38 16 -34 10z"/>
<path d="M1680 1556 c0 -2 7 -7 16 -10 8 -3 12 -2 9 4 -6 10 -25 14 -25 6z"/>
<path d="M1648 1493 c7 -3 16 -2 19 1 4 3 -2 6 -13 5 -11 0 -14 -3 -6 -6z"/>
<path d="M1617 1459 c7 -7 15 -10 18 -7 3 3 -2 9 -12 12 -14 6 -15 5 -6 -5z"/>
<path d="M191 1627 c-11 -14 4 -34 39 -51 8 -4 4 2 -10 15 l-25 22 25 -8 c25
-8 25 -8 6 14 -23 25 -21 24 -35 8z"/>
<path d="M260 1606 c0 -2 8 -10 18 -17 15 -13 16 -12 3 4 -13 16 -21 21 -21
13z"/>
<path d="M856 1357 c3 -10 9 -15 12 -12 3 3 0 11 -7 18 -10 9 -11 8 -5 -6z"/>
<path d="M134 1333 c4 -4 16 -8 28 -10 28 -4 18 6 -12 12 -12 2 -20 1 -16 -2z"/>
<path d="M281 1076 c2 -2 15 -9 29 -16 23 -12 24 -12 11 3 -7 10 -20 17 -29
17 -8 0 -13 -2 -11 -4z"/>
<path d="M418 1013 c12 -2 20 -8 18 -12 -3 -4 5 -8 16 -8 20 -2 20 -1 2 12
-11 8 -28 14 -39 13 -17 -1 -17 -1 3 -5z"/>
<path d="M288 883 c7 -3 16 -2 19 1 4 3 -2 6 -13 5 -11 0 -14 -3 -6 -6z"/>
<path d="M420 872 c0 -4 20 -18 44 -29 37 -18 44 -19 42 -6 -3 22 -86 56 -86
35z"/>
<path d="M251 841 c-14 -4 -27 -13 -29 -21 -3 -8 -1 -12 3 -8 4 4 15 4 24 -1
11 -6 22 -3 34 9 21 21 6 30 -32 21z"/>
<path d="M360 846 c0 -5 65 -36 76 -36 2 0 4 4 4 9 0 5 -10 11 -22 14 -13 2
-31 8 -40 12 -10 4 -18 4 -18 1z"/>
<path d="M340 789 c52 -24 90 -33 90 -21 0 10 -54 30 -100 36 -35 5 -34 5 10
-15z"/>
<path d="M490 790 c8 -5 22 -10 30 -10 13 0 13 1 0 10 -8 5 -22 10 -30 10 -13
0 -13 -1 0 -10z"/>
<path d="M1585 860 c3 -5 8 -10 11 -10 2 0 4 5 4 10 0 6 -5 10 -11 10 -5 0 -7
-4 -4 -10z"/>
<path d="M2165 870 c-3 -5 -1 -10 4 -10 6 0 11 5 11 10 0 6 -2 10 -4 10 -3 0
-8 -4 -11 -10z"/>
<path d="M1611 334 c-13 -13 -20 -24 -14 -24 5 0 20 11 33 25 30 32 13 31 -19
-1z"/>
<path d="M1696 361 c-4 -5 -2 -12 3 -15 5 -4 12 -2 15 3 4 5 2 12 -3 15 -5 4
-12 2 -15 -3z"/>
<path d="M1426 283 c-4 -4 -23 -6 -44 -5 -24 1 -32 -1 -24 -6 17 -11 61 -7 75
7 6 6 9 11 6 11 -3 0 -9 -3 -13 -7z"/>
</g>
</svg>
